<svg width="751" height="320" viewBox="0 0 751 320" fill="none" xmlns="http://www.w3.org/2000/svg">
<path d="M496.941 315.605C496.941 315.605 65.9766 309.961 59.7257 309.876C53.4748 309.792 38.4837 313.22 35.4632 302.949C34.2386 299.175 34.1369 295.121 35.1708 291.29C36.2047 287.458 38.3288 284.017 41.2806 281.39C45.4758 277.75 51.545 271.598 52.0903 267.394C52.6357 263.189 45.9653 255.373 41.2526 252.551C36.5399 249.729 6.64178 227.154 4.26447 217.885C1.88716 208.615 16.3048 187.945 16.8502 187.113C17.3956 186.28 47.1679 135.445 51.2373 129.801C55.3067 124.158 67.0394 126.979 70.6473 136.856C74.2553 146.732 84.7853 194.703 88.9386 198.936C93.0919 203.169 95.9307 210.999 118.893 212.961C141.855 214.922 273.054 220.509 273.054 220.509L415.567 219.676C415.567 219.676 442.137 219.959 445.507 218.548C448.877 217.137 457.981 202.604 439.69 195.338C421.398 188.072 334.053 153.138 328.502 151.995C322.95 150.852 304.938 150.062 291.625 151.995C278.312 153.928 206.224 165.399 199.567 165.681C192.911 165.963 166.579 159.261 161.307 150.02C156.035 140.778 136.149 106.817 134.415 100.666C132.681 94.5143 131.954 72.1371 156.594 73.534C181.234 74.9308 295.793 100.948 295.793 100.948C295.793 100.948 331.83 110.458 339.871 109.907C347.912 109.357 365.937 104.87 378.075 93.6818C390.214 82.4933 447.115 17.5912 458.764 11.4255C470.413 5.25981 495.64 2.48031 504.506 3.87712C513.372 5.27392 523.637 11.9899 524.476 22.0638C525.315 32.1377 523.371 124.172 524.476 131.438C525.581 138.704 526.14 155.776 559.436 172.002C592.733 188.227 626.253 201.377 632.909 203.62C639.566 205.864 667.87 202.209 653.704 172.002C635.692 142.626 605.192 104.955 601.864 97.068C598.536 89.181 593.544 56.1515 636.825 56.1515C667.884 56.9839 675.085 77.414 681.742 86.6413C688.398 95.8687 737.748 167.205 743.566 185.405C759.102 244.988 716.115 315.633 658.724 315.633C596.061 316.508 496.941 315.605 496.941 315.605Z" stroke="#040404" stroke-width="7" stroke-miterlimit="10"/>
</svg>
